<?xml version="1.0" encoding="UTF-8"?><svg id="uuid-bbbfb62d-9b8a-4ce4-88ba-10926e0bc32f" xmlns="http://www.w3.org/2000/svg" viewBox="0 0 109.39 92"><defs><style>.uuid-cf4a1b22-1da9-4439-81af-01740705c8c6,.uuid-6aac5fa9-d514-4465-8ee9-ea769811487a{fill:#d8a700;}.uuid-6aac5fa9-d514-4465-8ee9-ea769811487a{fill-rule:evenodd;}</style></defs><g id="uuid-f2be39b9-efff-480d-8056-2b1def3d8bb3"><path class="uuid-6aac5fa9-d514-4465-8ee9-ea769811487a" d="m88.69,57.14v14.51c0,.07-.03.36.04.41.05.02,3.55.04,3.79,0,.05-.16.01-3.58.01-4.06v-15.16c0-.33.02-.72,0-1.03-.08.09-.05.3-.05.46v18.74c0,.27.03.77,0,1.01h-3.75c-.03-.22,0-13.63,0-13.68v-1s0-.08,0-.1c0-.03,0-.03,0-.06-.01-.05,0-.02-.02-.05m-19.22,14.91c.13.05,4.3.02,5.18.02.06,0,.12,0,.17,0h.12s.01-.02.02-.02c0,0,.01,0,.02,0,.05-.06.02-5.19.02-8.37,0-.67.05-.58-.24-.58h-4.2c-.28,0-.56,0-.84,0-.3,0-.25-.1-.25.56v7.61c0,.24-.02.56,0,.79Zm12.72.02h4.83s0-14.2,0-14.2c-.19-.06-3.96-.02-4.67-.02-.4,0-.31-.2-.31,1.2v12.64c0,.35-.04.38.13.38Zm12.05-19.48c-.06.01,0-.02-.02.04-.02.08,0,15.12,0,18.43,0,.27-.03.75,0,1,.15.05,4.49,0,5.49.02.06,0,.14.01.18-.03.07-.08,0-13.83.02-19.22,0-.04,0-.09,0-.12l-.02-.11c-.03-.07-3.7-.03-4.25-.03h-1.24s-.08,0-.09,0c-.13.01-.05,0-.08.03Zm-33.97,21.07c15.94.13,31.94,0,47.88,0,.34,0,.53.03.79-.09.17-.08.34-.25.41-.45.18-.51-.21-.97-.63-1.05-.31-.06-2.99-.02-3.54-.02h-1.78c-.57,0-1.24.03-1.8,0-.04-.47,0-2.09,0-2.69v-17.11c0-.42-.02-.71-.35-.99-.29-.25-.59-.31-1.09-.31h-5.69c-.65,0-1.29-.06-1.71.41-.08.09-.24.31-.21.46.01.31,0,.7,0,1.03v15.16c0,.47.03,3.9-.01,4.06-.24.04-3.74.02-3.79,0-.06-.05-.03-.34-.03-.41v-14.51c.02-.24-.3-.59-.46-.7-.32-.2-.54-.21-1-.21h-4.89c-.38,0-.85-.05-1.17.06-.82.28-.81.82-.81,1.55,0,3.84.03,14.15-.02,14.2-.03.03-.13.02-.19.02h-3.23s-.08,0-.11,0l-.1-.02s-.03-6.17-.02-9.39c0-.6-.29-.9-.77-1.09-.35-.14-1.33-.08-1.8-.08h-3.79c-.47,0-1.45-.06-1.8.07-.47.18-.77.48-.78,1.05-.02,6.56,0-.69,0,5.87,0,.31.03,3.35,0,3.57-.32.03-4.56,0-5.43,0-.13,0-.34.06-.36-.08-.02-.14,0-22.92,0-22.92v-8.26c0-.37.04-1.11-.02-1.42-.07-.39-.39-.67-.83-.68-.42,0-.76.28-.85.63"/><path class="uuid-6aac5fa9-d514-4465-8ee9-ea769811487a" d="m97.02,38.65c-.07.17-.62.54-.75.65-.7.54-1.64,1.27-2.36,1.76-.55.37-1.04.73-1.63,1.12-.54.36-1.09.69-1.68,1.07-1.12.72-2.33,1.35-3.54,2-.84.45-1.92.95-2.82,1.35-.34.15-.67.27-1,.43-.99.47-2.14.8-3.03,1.17-.15.06-.37.1-.53.17-.17.07-.36.13-.54.18-.49.13-1.14.36-1.63.48l-1.42.35c-.1.02-.15.05-.28.08-.38.08-.74.19-1.17.25-.86.13-1.38.3-2.44.42-1.02.12-3.06.36-4.01.29-.45-.03-.88-.02-1.19.2-.63.43-.7,1.26-.14,1.78.38.35,1.09.28,1.7.3.22,0,.47,0,.7-.01.46-.01.93-.04,1.39-.07.48-.03.86-.09,1.33-.13.23-.02.37-.06.61-.09.43-.05,1.42-.24,1.85-.3.42-.07,3.1-.68,3.44-.81.09-.03.15-.06.25-.08.14-.03.17-.05.28-.08.61-.13,3.23-.99,3.73-1.22l3.02-1.22c2.49-1.1,4.97-2.41,7.25-3.85.59-.37,1.09-.7,1.67-1.08.59-.39,1.1-.72,1.63-1.13.24-.18.53-.39.8-.58.34-.24,2.23-1.76,2.37-1.8l-.23,1.59s-.03.07-.04.12c-.02.07-.02.11-.03.18l-.34,1.8c-.04.21-.05.44-.09.64-.06.25-.31,1.65-.29,1.85.03.42.31.74.59.91.79.46,1.75-.08,1.85-.86.1-.76.29-1.65.43-2.44.15-.84.27-1.64.43-2.45l.85-4.94c.1-.93-.72-1.51-1.68-1.24-.2.06-.44.1-.65.15l-1.89.47c-.28.06-.67.14-.93.23l-3.21.74c-.11.04-.18.05-.32.09-.24.06-.42.09-.66.14l-.62.16c-.15.03-.56.09-.67.13-1.52.53-.94,2.39.43,2.28l2.57-.57c.3-.09.93-.21,1.29-.3.21-.05.43-.09.63-.15.15-.05.55-.13.72-.14"/><path class="uuid-cf4a1b22-1da9-4439-81af-01740705c8c6" d="m71.28,0c-.25,6.14-5.48,8.75-9.82,9.12H2.3v17.98h.6c1.99-7.36,9.01-7.33,15.68-7.29,8.68,0,18.72,0,25.32,0l.04,46.31c0,2.09.13,3.78.4,5.04.84,3.95,3.76,5.09,6.25,4.9v3.41h-28.19v-3.37c2-.14,4.42-1.66,5.7-3.15.34-.39.61-1.12.81-2.19.22-1.19.33-2.74.33-4.65v-33.91h2.3v33.91c0,2.04-.13,3.73-.38,5.07-.32,1.71-1.79,5.03-3.51,5.57h17.84c-2.59-1.85-3.01-2.66-3.41-5.13-.31-1.44-.46-3.28-.46-5.52V22.1h-.39s-11.99.02-11.99.02h-9.33c-.33,0-.52,0-1.36,0-6.01-.03-12.36-.07-13.63,6.37l-.18.93H0V6.82h59.93c5.19-.55,8.63-2.41,8.64-6.82h2.71Z"/><path class="uuid-6aac5fa9-d514-4465-8ee9-ea769811487a" d="m55.59,15.53h2.17v49.86c-.46,19.53-16.31,26.89-33.02,26.6,17.59-1.6,30.42-10.27,30.85-26.5V15.53"/></g></svg>