<?xml version="1.0" encoding="UTF-8"?><svg id="uuid-7410b899-0cc6-40a5-8dee-08ad8ef33dc8" xmlns="http://www.w3.org/2000/svg" viewBox="0 0 132.23 29.3"><defs><style>.uuid-ed67e35a-f2b6-4615-bf0a-39f182d56995{fill:#d8a700;}</style></defs><g id="uuid-84599db6-f5c2-4abf-b21f-6383c29b7d3e"><path class="uuid-ed67e35a-f2b6-4615-bf0a-39f182d56995" d="m18.62.65c.07-.07.14-.1.21-.1.24,0,.52.14.79.45.14.14.21.27.21.41v.07l-.03.03c5.94-.65,10.27-1,12.98-1,1.41,0,2.4.1,3.02.27.34.1.58.31.76.62.03.07.07.17.07.24-.03.1-.1.17-.21.17-.03,0-.1,0-.17-.03-.55-.17-1.48-.24-2.78-.24-2.85,0-7.59.38-14.19,1.17-4.02,9.48-6.66,16.21-7.83,20.27-.38,1.27-.58,2.2-.58,2.71v.07s.03.07.03.07c-.03.1-.1.17-.21.17-.31,0-.55-.14-.82-.45-.1-.17-.17-.34-.17-.52,0-1.92,2.27-8.38,6.8-19.3.41-.96.79-1.92,1.17-2.85-1.55.21-3.19.41-4.95.65-1.72.21-3.26.41-4.57.62-1.34.17-2.54.34-3.64.52s-1.96.31-2.54.38l-.93.14h-.07c-.27,0-.55-.17-.79-.52-.1-.14-.17-.24-.17-.34s.07-.17.17-.17c0,0,.14-.03.48-.07,6.53-1,12.33-1.79,17.52-2.37l.45-1.06Zm5.19,13.36c-.1.21-.34.17-.72-.1-.07-.03-.14-.07-.17-.1-.86.24-1.65.72-2.37,1.41-.62.62-.93,1.24-.93,1.85,0,.14,0,.24.03.38.45-.03,1.03-.38,1.79-.96s1.31-1.06,1.68-1.41c.34-.38.65-.69.93-1l.03-.03c.07-.07.17-.14.27-.14.27,0,.52.21.76.58.1.14.14.24.14.31,0,.03,0,.07-.03.07-.07.52-.1.93-.1,1.27s.07.65.14.93c.07.14.17.21.38.21.72,0,2.4-.79,5.01-2.44.03-.03.07-.03.14-.03.24,0,.48.14.72.48.14.14.17.27.21.38-.03.1-.03.14-.1.17-.14.1-.34.24-.65.41-1.58,1.03-2.75,1.65-3.54,1.89-.41.1-.76.17-1.06.17-.14,0-.31-.03-.55-.07-1.03-.27-1.65-.96-1.82-2.03-1.61,1.51-2.85,2.23-3.71,2.27h-.14c-.58-.07-1.03-.38-1.41-.93-.1-.17-.17-.38-.24-.55-.03-.17-.07-.34-.07-.55,0-.93.55-1.82,1.61-2.68.65-.48,1.31-.82,1.96-1.03.14-.03.31-.07.48-.07.48.03.86.21,1.17.55.21.31.27.55.17.79Zm13.6.82c.07-.03.1-.07.17-.07.24,0,.45.17.69.52.14.14.21.27.21.38-.03.1-.03.14-.07.17-.55.41-1.75,1.65-3.61,3.78-1.96,2.2-3.23,3.57-3.85,4.09-.38.31-.65.48-.82.48h-.14c-.96,0-1.44-.62-1.44-1.82,0-2.06,1.89-7.66,5.63-16.73.1-.31.27-.65.41-1.03.76-1.75,1.17-2.82,1.27-3.09.03-.1.1-.14.17-.14.27,0,.55.14.79.41.14.17.21.31.24.45,0,.21-.27.93-.79,2.13-.21.45-.38.79-.48,1.06-2.82,6.87-4.64,11.64-5.43,14.43-.41,1.37-.62,2.4-.62,3.13.79-.52,2.03-1.79,3.74-3.78,1.75-2.06,2.89-3.33,3.37-3.85.21-.17.38-.38.55-.52Zm.69-2.03c.03-.1.1-.14.21-.14.24,0,.48.14.72.41.1.14.17.27.17.41v.1s-.21.55-.58,1.72c-.41,1.34-.62,2.44-.62,3.23,0,.21.03.41.07.58.69-.24,1.65-1.2,2.89-2.82.1-.17.21-.31.31-.45.52-.69.89-1.34,1.2-1.92l.21-.96c.03-.07.03-.1.03-.1.07-.07.14-.1.21-.1.27,0,.52.14.76.41.14.21.21.41.21.65-.17.48-.24.76-.24.79,0,.07-.03.14-.03.17,0,.14.03.24.03.31.1.07.27.1.52.1.69,0,1.51-.14,2.51-.45.03,0,.07-.03.1-.03.27,0,.52.17.76.52.1.1.14.24.14.34-.03.07-.07.14-.14.17-.96.31-1.79.48-2.47.48-.79,0-1.44-.24-1.92-.69-.76,1.24-1.58,2.34-2.51,3.33-.86.89-1.58,1.34-2.1,1.34h-.03c-.55,0-1-.31-1.34-.96-.1-.24-.21-.48-.24-.76-.03-.1-.03-.31-.03-.55,0-.21,0-.45.03-.69.03-.27.07-.52.1-.79.07-.24.1-.48.17-.76s.14-.52.21-.76.14-.45.21-.69c.07-.21.14-.41.21-.58.03-.21.1-.34.14-.48.07-.14.1-.24.1-.31l.07-.1Zm13.22,1.2c-.07.24-.34.17-.76-.1-.03-.07-.1-.1-.14-.1-.79.21-1.55.65-2.23,1.34-.69.65-1.03,1.31-1.03,1.92,0,.17,0,.34.07.45h.07c.24,0,.62-.14,1.06-.45s.93-.72,1.44-1.24c.52-.48.89-.86,1.13-1.1.24-.21.45-.45.65-.65v-.03c.1-.14.34-.07.65.14.03.03.1.07.14.1.27.21.38.41.38.58,0,.07-.07.38-.17.93-.03.17-.07.31-.07.45.03.21.07.38.17.48.1.07.21.1.31.1.34,0,.96-.27,1.85-.82,1.13-.69,2.64-1.85,4.57-3.47.03-.03.07-.07.14-.07.24,0,.52.17.79.48.14.14.21.27.21.38v.1s-.07.1-.17.31c-.62,1.24-1.17,2.27-1.58,3.09.1-.07.27-.27.55-.55,1.31-1.34,2.34-2.23,3.13-2.68.55-.31,1.03-.45,1.44-.45.34,0,.65.1.93.31.48.41.72,1.03.72,1.85,0,.24,0,.58-.07,1.03-.03.45-.03.76-.03.96,0,.27,0,.45.03.58.89-.17,2.44-1.17,4.64-2.99,0-.03.03-.03.07-.07.03-.03.1-.03.17-.03.24,0,.48.14.76.48.1.14.17.27.17.38,0,.07-.03.1-.07.14-1.27,1.03-2.16,1.72-2.75,2.1-1.03.65-1.85,1-2.47,1-.21,0-.38-.03-.52-.1-.82-.34-1.27-1.17-1.27-2.4,0-.21.07-.82.17-1.82.03-.1.03-.21.03-.24-.03-.1-.03-.14-.07-.17-.69,0-2.06,1.03-4.09,3.09-.21.24-.55.58-1,1.03-1.17,1.2-1.85,1.85-2.06,1.92-.03,0-.03.03-.03.03h-.07c-.31,0-.62-.14-.89-.38-.14-.1-.21-.24-.21-.34,0-.03,0-.1.03-.14-.03-.21.55-1.44,1.75-3.74-.65.52-1.31.96-1.89,1.34-1,.58-1.79.89-2.44.89-.27,0-.52-.07-.76-.17-.62-.34-1.03-.86-1.17-1.55-1.65,1.51-2.92,2.27-3.88,2.27-.24,0-.48-.07-.69-.21-.48-.31-.82-.72-.96-1.2-.03-.14-.07-.31-.07-.48,0-.82.45-1.65,1.31-2.47.79-.79,1.61-1.24,2.44-1.34h.27c.52,0,.89.17,1.2.52.21.27.24.55.14.79Zm19.13,3.5c-.17.1-.27.34-.27.76.03.41.14.65.34.72s.45.1.69.1c1.41,0,3.4-.93,5.94-2.82.65-.48,1.24-.93,1.75-1.37.03-.03.07-.07.14-.07.21,0,.45.17.69.52.1.17.17.34.17.45,0,.07-.03.14-.07.17-.27.27-.86.72-1.79,1.41-2.54,1.82-4.57,2.71-6.15,2.75-.17,0-.34-.03-.41-.03-1.44-.17-2.23-.82-2.37-1.92-.03-.14-.03-.27-.03-.38,0-1.03.45-2.1,1.31-3.23.79-1.06,1.61-1.72,2.47-1.99.21-.07.38-.1.55-.1h.07c.52,0,.96.24,1.34.69.24.31.34.62.34.93,0,.21-.07.41-.17.62s-.27.41-.52.62c-.21.21-.48.41-.76.58s-.55.34-.86.52-.58.34-.89.45c-.27.14-.52.27-.76.38-.21.1-.41.17-.55.21l-.21.07Zm.93-1.85c1.51-.76,2.37-1.48,2.58-2.1-.69.21-1.41.76-2.23,1.72-.1.1-.24.24-.34.38Zm36.61-.86c.31,0,.58.17.82.52.1.14.17.27.17.38-.03.1-.1.14-.21.17-2.51.03-5.19.76-8,2.16-1.85,4.05-3.68,7.08-5.39,9.07-1.17,1.31-2.16,2.03-3.09,2.16-.14.03-.27.03-.34.03-.79,0-1.41-.34-1.82-1.03-.27-.45-.41-.93-.41-1.48,0-.48.14-.96.34-1.37.82-1.68,2.75-3.61,5.74-5.8,1.55-1.17,2.85-1.99,3.88-2.51.76-1.55,1.55-3.57,2.34-6.01,1-3.02,1.48-5.36,1.48-7.04,0-1.06-.21-1.82-.62-2.27-.52-.52-1.34-.79-2.44-.79-.89,0-1.85.14-2.92.45-2.27.65-4.29,1.79-6.05,3.4-2.06,1.85-3.23,3.88-3.54,6.15-.03.34-.07.69-.07,1,.03,1.41.38,2.75,1.1,4.09.14.24.1.38-.07.41h-.21c-.31-.07-.55-.27-.76-.58t-.03-.07c-.79-1.48-1.2-2.99-1.2-4.47,0-2.44.96-4.71,2.92-6.77,1.68-1.79,3.74-3.09,6.25-3.95.24-.07.48-.14.69-.21,1.03-.31,1.99-.45,2.92-.45,1.75.03,3.16.55,4.12,1.55.69.76,1.06,1.92,1.06,3.5,0,2.47-.76,5.6-2.23,9.38-.27.65-.52,1.24-.76,1.75,2.27-.89,4.4-1.37,6.32-1.37Zm-9.45,4.5c-1.99,1.24-3.71,2.64-5.19,4.19-1.06,1.1-1.79,2.16-2.23,3.09-.17.45-.24.79-.24,1.1,0,.21,0,.31.07.41s.17.14.31.14c.41,0,.93-.24,1.55-.69.1-.07.17-.1.21-.17,1.31-1.2,2.85-3.37,4.6-6.42.34-.55.62-1.1.93-1.65Zm19.3-8.28s.07-.03.14-.03c.24,0,.52.17.79.48.1.14.17.27.17.38,0,.07-.03.14-.07.14-1.1.65-1.75,1.27-1.96,1.89-.07.17-.1.38-.1.58,0,.48.21,1.13.65,1.96,1.51-.65,3.26-1.2,5.26-1.65h.03s.03-.03.03-.03c.27,0,.48.17.65.52.1.1.14.24.14.34-.03.14-.1.21-.21.24-2.03.48-3.85,1.06-5.43,1.79.07.24.1.41.1.58,0,.86-.76,1.61-2.23,2.27-.24.1-.52.21-.79.31h-.1c-.31,0-.62-.17-.96-.52-.24-.27-.38-.58-.38-.86,0-.21.07-.41.21-.58.41-.65,1.37-1.31,2.89-2.06-.1-.17-.24-.45-.41-.82-.34-.62-.55-1.13-.62-1.48-.89.52-1.79.86-2.64,1.03-.21,1-.69,1.96-1.48,2.85-.93,1.03-1.85,1.55-2.82,1.58-.41-.03-.79-.1-1.2-.31-.76-.45-1.17-1-1.17-1.72s.38-1.58,1.1-2.51c.45-.55.86-.93,1.24-1.2-.14-.21-.17-.38-.17-.52,0-.48.41-.79,1.31-.96.14-.03.31-.07.48-.07h.27c.96,0,1.65.31,2.1.96.14.21.24.41.31.65,1.1-.38,2.2-1.03,3.26-1.96.41-.48.96-.89,1.61-1.27Zm-8.17,4.12c-.48.31-.96.89-1.44,1.65-.38.58-.58,1.1-.69,1.51v.31c0,.34.14.52.38.52.45,0,1.13-.48,2.06-1.41.79-.82,1.31-1.51,1.55-2.1-.72-.03-1.34-.21-1.85-.48Zm.07-.96c.1.07.17.17.27.27l.14.07h.03c.31.03.58.07.86.07s.55-.03.79-.07c.03-.38,0-.65-.07-.86h-.24c-.89,0-1.48.17-1.75.48,0,.03-.03.03-.03.03Zm5.67,4.98c.45-.24.79-.48,1.03-.72-.34.17-.69.45-1.03.72Zm7.38-1.65c-.17.1-.27.34-.27.76.03.41.14.65.34.72s.45.1.69.1c1.41,0,3.4-.93,5.94-2.82.65-.48,1.24-.93,1.75-1.37.03-.03.07-.07.14-.07.21,0,.45.17.69.52.1.17.17.34.17.45,0,.07-.03.14-.07.17-.27.27-.86.72-1.79,1.41-2.54,1.82-4.57,2.71-6.15,2.75-.17,0-.34-.03-.41-.03-1.44-.17-2.23-.82-2.37-1.92-.03-.14-.03-.27-.03-.38,0-1.03.45-2.1,1.31-3.23.79-1.06,1.61-1.72,2.47-1.99.21-.07.38-.1.55-.1h.07c.52,0,.96.24,1.34.69.24.31.34.62.34.93,0,.21-.07.41-.17.62s-.27.41-.52.62c-.21.21-.48.41-.76.58s-.55.34-.86.52-.58.34-.89.45c-.27.14-.52.27-.76.38-.21.1-.41.17-.55.21l-.21.07Zm.93-1.85c1.51-.76,2.37-1.48,2.58-2.1-.69.21-1.41.76-2.23,1.72-.1.1-.24.24-.34.38Zm4.5-7.35c-.07.72-.34,1.27-.82,1.68-.24.24-.52.34-.82.41-.14,0-.21-.03-.21-.14,0-.07.03-.14.07-.21.1-.14.27-.27.55-.41.03-.03.07-.03.07-.07.14-.21.24-.48.27-.82.03-.21.21-.38.48-.55.24-.1.38-.1.41.03v.07Z"/></g></svg>